# xmcd CD database file
#
# Track frame offsets:
#	150
#	20000
#	20937
#	30515
#	42855
#	44202
#	49697
#	57115
#	62662
#	63210
#	75372
#	85377
#	96054
#	96830
#	98215
#	111680
#	122572
#	130310
#	141977
#	149495
#	151905
#	163684
#	175067
#	183855
#	192792
#	203532
#	216707
#	224937
#	234562
#	235472
#	248132
#	257540
#	270455
#	283810
#
# Disc length: 3925 seconds
#
# Revision: 24
# Processed by: cddbd v1.5.2PL0 Copyright (c) Steve Scherf et al.
# Submitted via: CDex 1.51
#
DISCID=010f5322
DTITLE=The Beatles - Anthology 1 - Disc 1
DYEAR=1995
DGENRE=Pop, Rock, Beat
TTITLE0=Free as a Bird
TTITLE1=Speech: John Lennon
TTITLE2=That'll be the Day
TTITLE3=In Spite of all the Danger
TTITLE4=Speech: Paul McCartney
TTITLE5=Hallelujah, i love her so
TTITLE6=You'll be mine
TTITLE7=Cayenne
TTITLE8=Speech: Paul
TTITLE9=My Bonnie
TTITLE10=Ain't she sweet
TTITLE11=Cry for a Shadow
TTITLE12=Speech: John
TTITLE13=Speech: Brian Epstein
TTITLE14=Searchin'
TTITLE15=Three cool Cats
TTITLE16=The Sheik of Araby
TTITLE17=Like dreamers do
TTITLE18=Hello little Girl
TTITLE19=Speech: Brian Epstein
TTITLE20=Besame Mucho
TTITLE21=Love me do
TTITLE22=How do you do it
TTITLE23=Please please me
TTITLE24=One After 909 (Sequence)
TTITLE25=One After 909
TTITLE26=Lend me your comb
TTITLE27=I'll get you
TTITLE28=Speech: John
TTITLE29=I saw her standing there
TTITLE30=From me to you
TTITLE31=Money (That's what i want)
TTITLE32=You really got a hold on me
TTITLE33=Roll over Beethoven
EXTD=YEAR: 1995
EXTT0=
EXTT1=
EXTT2=
EXTT3=
EXTT4=
EXTT5=
EXTT6=
EXTT7=
EXTT8=
EXTT9=
EXTT10=
EXTT11=
EXTT12=
EXTT13=
EXTT14=
EXTT15=
EXTT16=
EXTT17=
EXTT18=
EXTT19=
EXTT20=
EXTT21=
EXTT22=
EXTT23=
EXTT24=
EXTT25=
EXTT26=
EXTT27=
EXTT28=
EXTT29=
EXTT30=
EXTT31=
EXTT32=
EXTT33=
PLAYORDER=
